<svg xmlns="http://www.w3.org/2000/svg" xmlns:xlink="http://www.w3.org/1999/xlink" width="180" zoomAndPan="magnify" viewBox="0 0 135 52.499999" height="70" preserveAspectRatio="xMidYMid meet" version="1.0"><defs><g/><clipPath id="3cddaff1e2"><path d="M 0.636719 0 L 134.363281 0 L 134.363281 52.003906 L 0.636719 52.003906 Z M 0.636719 0 " clip-rule="nonzero"/></clipPath><clipPath id="1a53723250"><path d="M 67 9 L 118 9 L 118 46 L 67 46 Z M 67 9 " clip-rule="nonzero"/></clipPath><clipPath id="77f37d885c"><path d="M 65.269531 14.511719 L 113.644531 2.789062 L 122.042969 37.445312 L 73.667969 49.167969 Z M 65.269531 14.511719 " clip-rule="nonzero"/></clipPath><clipPath id="3a1d14c746"><path d="M 65.269531 14.511719 L 113.644531 2.789062 L 122.042969 37.445312 L 73.667969 49.167969 Z M 65.269531 14.511719 " clip-rule="nonzero"/></clipPath><clipPath id="e7c421d870"><path d="M 14.664062 21.5 L 23.582031 21.5 L 23.582031 30.417969 L 14.664062 30.417969 Z M 14.664062 21.5 " clip-rule="nonzero"/></clipPath></defs><g clip-path="url(#3cddaff1e2)"><path fill="#ffffff" d="M 0.636719 0 L 134.363281 0 L 134.363281 52.003906 L 0.636719 52.003906 Z M 0.636719 0 " fill-opacity="1" fill-rule="nonzero"/><path fill="#ffffff" d="M 0.636719 0 L 134.363281 0 L 134.363281 52.003906 L 0.636719 52.003906 Z M 0.636719 0 " fill-opacity="1" fill-rule="nonzero"/></g><g clip-path="url(#1a53723250)"><g clip-path="url(#77f37d885c)"><g clip-path="url(#3a1d14c746)"><path fill="#ffde59" d="M 116.5 19.195312 C 116.679688 19.878906 117.058594 20.289062 117.371094 20.515625 C 116.902344 21.152344 116.429688 21.785156 115.953125 22.414062 C 115.4375 22.027344 114.597656 21.203125 114.230469 19.8125 C 113.355469 20.976562 112.476562 22.136719 111.582031 23.285156 C 110.5625 24.601562 109.53125 25.902344 108.480469 27.195312 C 107.429688 28.484375 106.363281 29.765625 105.28125 31.03125 C 104.195312 32.292969 103.089844 33.542969 101.957031 34.773438 C 100.824219 36 99.664062 37.207031 98.460938 38.382812 C 97.261719 39.554688 96.019531 40.699219 94.707031 41.777344 C 93.386719 42.855469 92.007812 43.882812 90.433594 44.726562 C 89.644531 45.140625 88.804688 45.515625 87.855469 45.746094 C 87.378906 45.855469 86.871094 45.929688 86.335938 45.921875 C 86.066406 45.921875 85.792969 45.890625 85.515625 45.84375 C 85.238281 45.789062 84.960938 45.707031 84.695312 45.597656 C 84.425781 45.484375 84.167969 45.347656 83.929688 45.183594 C 83.714844 45.015625 83.496094 44.863281 83.304688 44.664062 C 83.101562 44.476562 82.929688 44.257812 82.761719 44.039062 C 82.683594 43.925781 82.609375 43.8125 82.535156 43.695312 C 82.496094 43.636719 82.464844 43.578125 82.433594 43.515625 L 82.34375 43.335938 C 82.109375 42.847656 81.949219 42.335938 81.871094 41.839844 L 81.839844 41.652344 L 81.816406 41.46875 C 81.804688 41.347656 81.789062 41.222656 81.78125 41.101562 C 81.773438 40.863281 81.757812 40.617188 81.769531 40.382812 C 81.789062 39.4375 81.9375 38.542969 82.136719 37.683594 C 82.339844 36.824219 82.59375 35.996094 82.871094 35.1875 C 83.433594 33.566406 84.097656 32.015625 84.789062 30.492188 C 85.480469 28.96875 86.199219 27.46875 86.914062 25.980469 C 87.628906 24.488281 88.335938 23.003906 88.996094 21.511719 C 89.652344 20.023438 90.265625 18.523438 90.710938 17.019531 C 90.929688 16.273438 91.105469 15.523438 91.1875 14.800781 L 91.222656 14.402344 L 91.222656 14.273438 C 91.226562 14.1875 91.230469 14.101562 91.230469 14.015625 L 91.21875 13.765625 C 91.195312 13.445312 91.140625 13.140625 91.046875 12.886719 C 90.949219 12.632812 90.820312 12.429688 90.652344 12.253906 C 90.609375 12.210938 90.570312 12.164062 90.515625 12.128906 L 90.441406 12.070312 C 90.417969 12.050781 90.394531 12.027344 90.363281 12.011719 C 90.300781 11.972656 90.238281 11.933594 90.175781 11.894531 L 89.980469 11.796875 C 89.71875 11.671875 89.429688 11.589844 89.125 11.542969 C 88.820312 11.492188 88.488281 11.496094 88.152344 11.519531 C 87.472656 11.570312 86.761719 11.761719 86.054688 12.015625 C 85.351562 12.277344 84.648438 12.609375 83.960938 12.984375 C 82.585938 13.738281 81.261719 14.648438 79.980469 15.625 C 78.699219 16.605469 77.457031 17.65625 76.25 18.75 C 75.046875 19.84375 73.871094 20.980469 72.726562 22.144531 C 72.152344 22.726562 71.585938 23.320312 71.03125 23.917969 C 70.75 24.214844 70.476562 24.515625 70.203125 24.816406 C 69.929688 25.117188 69.652344 25.425781 69.398438 25.722656 L 67.613281 24.1875 C 67.902344 23.859375 68.175781 23.550781 68.460938 23.238281 C 68.742188 22.925781 69.023438 22.621094 69.3125 22.3125 C 69.882812 21.699219 70.460938 21.09375 71.046875 20.496094 C 72.222656 19.304688 73.429688 18.136719 74.671875 17.007812 C 75.917969 15.878906 77.203125 14.789062 78.550781 13.757812 C 79.902344 12.730469 81.308594 11.757812 82.835938 10.921875 C 83.601562 10.503906 84.398438 10.125 85.246094 9.808594 C 86.09375 9.503906 86.992188 9.253906 87.964844 9.175781 C 88.453125 9.140625 88.957031 9.136719 89.46875 9.214844 C 89.980469 9.292969 90.496094 9.441406 90.980469 9.667969 C 91.101562 9.726562 91.222656 9.785156 91.339844 9.851562 L 91.679688 10.0625 C 91.734375 10.097656 91.792969 10.144531 91.847656 10.1875 L 92.019531 10.320312 C 92.132812 10.40625 92.234375 10.511719 92.335938 10.617188 C 92.746094 11.03125 93.058594 11.546875 93.253906 12.066406 C 93.441406 12.59375 93.527344 13.113281 93.5625 13.613281 L 93.578125 13.984375 C 93.582031 14.105469 93.574219 14.226562 93.574219 14.347656 L 93.570312 14.527344 L 93.554688 14.703125 L 93.523438 15.058594 C 93.417969 15.980469 93.210938 16.847656 92.964844 17.683594 C 92.46875 19.359375 91.820312 20.921875 91.144531 22.460938 C 90.46875 24 89.75 25.5 89.035156 26.996094 C 88.320312 28.488281 87.605469 29.972656 86.929688 31.460938 C 86.253906 32.953125 85.617188 34.449219 85.09375 35.957031 C 84.832031 36.707031 84.601562 37.464844 84.425781 38.21875 C 84.25 38.96875 84.132812 39.71875 84.121094 40.425781 C 84.109375 40.605469 84.125 40.773438 84.128906 40.949219 C 84.132812 41.03125 84.144531 41.113281 84.152344 41.195312 L 84.164062 41.320312 L 84.1875 41.4375 C 84.234375 41.761719 84.332031 42.046875 84.457031 42.304688 L 84.503906 42.398438 C 84.519531 42.433594 84.535156 42.464844 84.554688 42.492188 C 84.59375 42.550781 84.632812 42.605469 84.667969 42.667969 C 84.757812 42.769531 84.835938 42.882812 84.941406 42.976562 C 85.03125 43.078125 85.160156 43.15625 85.265625 43.25 C 85.371094 43.316406 85.476562 43.375 85.589844 43.425781 C 85.707031 43.46875 85.828125 43.507812 85.957031 43.535156 C 86.089844 43.554688 86.226562 43.570312 86.371094 43.574219 C 86.664062 43.578125 86.984375 43.535156 87.3125 43.457031 C 87.972656 43.300781 88.660156 43.007812 89.332031 42.648438 C 90.679688 41.929688 91.972656 40.976562 93.214844 39.960938 C 94.457031 38.941406 95.652344 37.839844 96.820312 36.703125 C 97.984375 35.5625 99.117188 34.382812 100.226562 33.179688 C 101.339844 31.972656 102.425781 30.746094 103.496094 29.5 C 104.566406 28.253906 105.617188 26.988281 106.65625 25.710938 C 107.691406 24.433594 108.714844 23.144531 109.726562 21.84375 C 110.609375 20.707031 111.484375 19.558594 112.34375 18.402344 C 110.914062 18.4375 109.890625 17.84375 109.375 17.457031 C 109.835938 16.847656 110.289062 16.238281 110.742188 15.625 C 111.054688 15.855469 111.554688 16.101562 112.253906 16.078125 C 112.953125 16.054688 113.863281 15.757812 114.960938 14.902344 L 116.804688 16.203125 C 116.335938 17.554688 116.320312 18.507812 116.5 19.195312 Z M 116.5 19.195312 " fill-opacity="1" fill-rule="nonzero"/></g></g></g><g clip-path="url(#e7c421d870)"><path fill="#5e17eb" d="M 23.640625 24.769531 L 23.640625 27.230469 C 20.65625 28.105469 20.207031 29.652344 20.207031 30.5 L 17.640625 30.5 C 17.640625 29.792969 17.804688 28.515625 18.785156 27.285156 L 14.664062 27.285156 L 14.664062 24.714844 L 18.785156 24.714844 C 17.804688 23.484375 17.640625 22.207031 17.640625 21.5 L 20.207031 21.5 C 20.207031 22.347656 20.65625 23.894531 23.640625 24.769531 Z M 23.640625 24.769531 " fill-opacity="1" fill-rule="nonzero"/></g><g fill="#000000" fill-opacity="1"><g transform="translate(28.197622, 30.573051)"><g><path d="M 0.25 0 L 0.25 -8.625 L 3.453125 -8.625 L 3.453125 -2.703125 L 9.109375 -2.703125 L 9.109375 0 Z M 0.25 0 "/></g></g></g><g fill="#000000" fill-opacity="1"><g transform="translate(37.433533, 30.573051)"><g><path d="M 0.25 0 L 0.25 -8.625 L 9.359375 -8.625 L 9.359375 -6.15625 L 3.453125 -6.15625 L 3.453125 -5.359375 L 9.359375 -5.359375 L 9.359375 -3.265625 L 3.453125 -3.265625 L 3.453125 -2.46875 L 9.359375 -2.46875 L 9.359375 0 Z M 0.25 0 "/></g></g></g><g fill="#000000" fill-opacity="1"><g transform="translate(46.915736, 30.573051)"><g><path d="M 3.6875 0 L 0.125 -8.625 L 3.640625 -8.625 L 6.0625 -2.21875 L 8.5 -8.625 L 12.015625 -8.625 L 8.453125 0 Z M 3.6875 0 "/></g></g></g><g fill="#000000" fill-opacity="1"><g transform="translate(59.05788, 30.573051)"><g><path d="M 5.546875 0.125 C 3.648438 0.125 2.269531 -0.238281 1.40625 -0.96875 C 0.550781 -1.695312 0.125 -2.816406 0.125 -4.328125 C 0.125 -5.816406 0.550781 -6.921875 1.40625 -7.640625 C 2.269531 -8.367188 3.648438 -8.734375 5.546875 -8.734375 C 7.265625 -8.734375 8.570312 -8.421875 9.46875 -7.796875 C 10.375 -7.171875 10.859375 -6.175781 10.921875 -4.8125 L 7.640625 -4.8125 C 7.585938 -5.226562 7.394531 -5.535156 7.0625 -5.734375 C 6.726562 -5.929688 6.222656 -6.03125 5.546875 -6.03125 C 4.910156 -6.03125 4.429688 -5.945312 4.109375 -5.78125 C 3.796875 -5.625 3.585938 -5.414062 3.484375 -5.15625 C 3.378906 -4.90625 3.328125 -4.628906 3.328125 -4.328125 C 3.328125 -4.015625 3.378906 -3.722656 3.484375 -3.453125 C 3.585938 -3.191406 3.800781 -2.976562 4.125 -2.8125 C 4.445312 -2.65625 4.921875 -2.578125 5.546875 -2.578125 C 6.222656 -2.578125 6.726562 -2.679688 7.0625 -2.890625 C 7.394531 -3.109375 7.585938 -3.421875 7.640625 -3.828125 L 10.921875 -3.828125 C 10.859375 -2.460938 10.378906 -1.460938 9.484375 -0.828125 C 8.585938 -0.191406 7.273438 0.125 5.546875 0.125 Z M 5.546875 0.125 "/></g></g></g><g fill="#000000" fill-opacity="1"><g transform="translate(70.104031, 30.573051)"><g><path d="M 0.125 0 L 3.6875 -8.625 L 8.453125 -8.625 L 12.015625 0 L 8.5 0 L 7.90625 -1.546875 L 4.234375 -1.546875 L 3.640625 0 Z M 5.078125 -3.765625 L 7.0625 -3.765625 L 6.0625 -6.40625 Z M 5.078125 -3.765625 "/></g></g></g><g fill="#000000" fill-opacity="1"><g transform="translate(82.246179, 30.573051)"><g><path d="M 0.25 0 L 0.25 -8.625 L 9.359375 -8.625 L 9.359375 -5.90625 L 3.453125 -5.90625 L 3.453125 -4.984375 L 8.625 -4.984375 L 8.625 -2.28125 L 3.453125 -2.28125 L 3.453125 0 Z M 0.25 0 "/></g></g></g><g fill="#000000" fill-opacity="1"><g transform="translate(91.728382, 30.573051)"><g><path d="M 0.25 0 L 0.25 -8.625 L 9.359375 -8.625 L 9.359375 -6.15625 L 3.453125 -6.15625 L 3.453125 -5.359375 L 9.359375 -5.359375 L 9.359375 -3.265625 L 3.453125 -3.265625 L 3.453125 -2.46875 L 9.359375 -2.46875 L 9.359375 0 Z M 0.25 0 "/></g></g></g></svg>